<svg width="2054" height="931" viewBox="0 0 2054 931" fill="none" xmlns="http://www.w3.org/2000/svg">
<g filter="url(#filter0_d)">
<circle cx="1773" cy="716" r="100" fill="#007AE8"/>
<circle cx="1773" cy="716" r="100" fill="url(#paint0_linear)"/>
</g>
<g filter="url(#filter1_d)">
<path fill-rule="evenodd" clip-rule="evenodd" d="M1924 616C1957.14 616 1984 589.137 1984 556C1984 522.863 1957.14 496 1924 496C1890.86 496 1864 522.863 1864 556C1864 589.137 1890.86 616 1924 616ZM1924 588C1941.67 588 1956 573.673 1956 556C1956 538.327 1941.67 524 1924 524C1906.33 524 1892 538.327 1892 556C1892 573.673 1906.33 588 1924 588Z" fill="#007AE8"/>
<path fill-rule="evenodd" clip-rule="evenodd" d="M1924 616C1957.14 616 1984 589.137 1984 556C1984 522.863 1957.14 496 1924 496C1890.86 496 1864 522.863 1864 556C1864 589.137 1890.86 616 1924 616ZM1924 588C1941.67 588 1956 573.673 1956 556C1956 538.327 1941.67 524 1924 524C1906.33 524 1892 538.327 1892 556C1892 573.673 1906.33 588 1924 588Z" fill="url(#paint1_linear)"/>
</g>
<circle cx="1445" cy="447" r="275" fill="#007AE8"/>
<circle cx="1445" cy="447" r="275" fill="url(#paint2_linear)"/>
<circle cx="1445" cy="447" r="194.7" fill="white"/>
<circle cx="252.052" cy="252.053" r="240" transform="rotate(2.95483 252.052 252.053)" fill="#007AE8"/>
<circle cx="252.052" cy="252.053" r="240" transform="rotate(2.95483 252.052 252.053)" fill="url(#paint3_linear)"/>
<g filter="url(#filter2_d)">
<path fill-rule="evenodd" clip-rule="evenodd" d="M551.001 186C573.092 186 591.001 168.091 591.001 146C591.001 123.909 573.092 106 551.001 106C528.91 106 511.001 123.909 511.001 146C511.001 168.091 528.91 186 551.001 186ZM551.001 167.333C562.783 167.333 572.334 157.782 572.334 146C572.334 134.218 562.783 124.667 551.001 124.667C539.219 124.667 529.668 134.218 529.668 146C529.668 157.782 539.219 167.333 551.001 167.333Z" fill="#007AE8"/>
<path fill-rule="evenodd" clip-rule="evenodd" d="M551.001 186C573.092 186 591.001 168.091 591.001 146C591.001 123.909 573.092 106 551.001 106C528.91 106 511.001 123.909 511.001 146C511.001 168.091 528.91 186 551.001 186ZM551.001 167.333C562.783 167.333 572.334 157.782 572.334 146C572.334 134.218 562.783 124.667 551.001 124.667C539.219 124.667 529.668 134.218 529.668 146C529.668 157.782 539.219 167.333 551.001 167.333Z" fill="url(#paint4_linear)"/>
</g>
<g filter="url(#filter3_d)">
<path fill-rule="evenodd" clip-rule="evenodd" d="M264.001 684C291.615 684 314.001 661.614 314.001 634C314.001 606.386 291.615 584 264.001 584C236.387 584 214.001 606.386 214.001 634C214.001 661.614 236.387 684 264.001 684ZM264.001 660.667C278.729 660.667 290.668 648.728 290.668 634C290.668 619.272 278.729 607.333 264.001 607.333C249.273 607.333 237.334 619.272 237.334 634C237.334 648.728 249.273 660.667 264.001 660.667Z" fill="#007AE8"/>
<path fill-rule="evenodd" clip-rule="evenodd" d="M264.001 684C291.615 684 314.001 661.614 314.001 634C314.001 606.386 291.615 584 264.001 584C236.387 584 214.001 606.386 214.001 634C214.001 661.614 236.387 684 264.001 684ZM264.001 660.667C278.729 660.667 290.668 648.728 290.668 634C290.668 619.272 278.729 607.333 264.001 607.333C249.273 607.333 237.334 619.272 237.334 634C237.334 648.728 249.273 660.667 264.001 660.667Z" fill="url(#paint5_linear)"/>
</g>
<g filter="url(#filter4_d)">
<circle cx="772" cy="684" r="65" fill="#007AE8"/>
<circle cx="772" cy="684" r="65" fill="url(#paint6_linear)"/>
</g>
<defs>
<filter id="filter0_d" x="1663" y="616" width="280" height="315" filterUnits="userSpaceOnUse" color-interpolation-filters="sRGB">
<feFlood flood-opacity="0" result="BackgroundImageFix"/>
<feColorMatrix in="SourceAlpha" type="matrix" values="0 0 0 0 0 0 0 0 0 0 0 0 0 0 0 0 0 0 127 0"/>
<feOffset dx="30" dy="75"/>
<feGaussianBlur stdDeviation="20"/>
<feColorMatrix type="matrix" values="0 0 0 0 0 0 0 0 0 0 0 0 0 0 0 0 0 0 0.09 0"/>
<feBlend mode="normal" in2="BackgroundImageFix" result="effect1_dropShadow"/>
<feBlend mode="normal" in="SourceGraphic" in2="effect1_dropShadow" result="shape"/>
</filter>
<filter id="filter1_d" x="1854" y="496" width="200" height="235" filterUnits="userSpaceOnUse" color-interpolation-filters="sRGB">
<feFlood flood-opacity="0" result="BackgroundImageFix"/>
<feColorMatrix in="SourceAlpha" type="matrix" values="0 0 0 0 0 0 0 0 0 0 0 0 0 0 0 0 0 0 127 0"/>
<feOffset dx="30" dy="75"/>
<feGaussianBlur stdDeviation="20"/>
<feColorMatrix type="matrix" values="0 0 0 0 0 0 0 0 0 0 0 0 0 0 0 0 0 0 0.09 0"/>
<feBlend mode="normal" in2="BackgroundImageFix" result="effect1_dropShadow"/>
<feBlend mode="normal" in="SourceGraphic" in2="effect1_dropShadow" result="shape"/>
</filter>
<filter id="filter2_d" x="501.001" y="106" width="160" height="195" filterUnits="userSpaceOnUse" color-interpolation-filters="sRGB">
<feFlood flood-opacity="0" result="BackgroundImageFix"/>
<feColorMatrix in="SourceAlpha" type="matrix" values="0 0 0 0 0 0 0 0 0 0 0 0 0 0 0 0 0 0 127 0"/>
<feOffset dx="30" dy="75"/>
<feGaussianBlur stdDeviation="20"/>
<feColorMatrix type="matrix" values="0 0 0 0 0 0 0 0 0 0 0 0 0 0 0 0 0 0 0.09 0"/>
<feBlend mode="normal" in2="BackgroundImageFix" result="effect1_dropShadow"/>
<feBlend mode="normal" in="SourceGraphic" in2="effect1_dropShadow" result="shape"/>
</filter>
<filter id="filter3_d" x="204.001" y="584" width="180" height="215" filterUnits="userSpaceOnUse" color-interpolation-filters="sRGB">
<feFlood flood-opacity="0" result="BackgroundImageFix"/>
<feColorMatrix in="SourceAlpha" type="matrix" values="0 0 0 0 0 0 0 0 0 0 0 0 0 0 0 0 0 0 127 0"/>
<feOffset dx="30" dy="75"/>
<feGaussianBlur stdDeviation="20"/>
<feColorMatrix type="matrix" values="0 0 0 0 0 0 0 0 0 0 0 0 0 0 0 0 0 0 0.09 0"/>
<feBlend mode="normal" in2="BackgroundImageFix" result="effect1_dropShadow"/>
<feBlend mode="normal" in="SourceGraphic" in2="effect1_dropShadow" result="shape"/>
</filter>
<filter id="filter4_d" x="697" y="619" width="210" height="245" filterUnits="userSpaceOnUse" color-interpolation-filters="sRGB">
<feFlood flood-opacity="0" result="BackgroundImageFix"/>
<feColorMatrix in="SourceAlpha" type="matrix" values="0 0 0 0 0 0 0 0 0 0 0 0 0 0 0 0 0 0 127 0"/>
<feOffset dx="30" dy="75"/>
<feGaussianBlur stdDeviation="20"/>
<feColorMatrix type="matrix" values="0 0 0 0 0 0 0 0 0 0 0 0 0 0 0 0 0 0 0.09 0"/>
<feBlend mode="normal" in2="BackgroundImageFix" result="effect1_dropShadow"/>
<feBlend mode="normal" in="SourceGraphic" in2="effect1_dropShadow" result="shape"/>
</filter>
<linearGradient id="paint0_linear" x1="1776.69" y1="706.896" x2="1918.66" y2="771.788" gradientUnits="userSpaceOnUse">
<stop stop-color="#00A5E7"/>
<stop offset="1" stop-color="#00A5E7" stop-opacity="0"/>
</linearGradient>
<linearGradient id="paint1_linear" x1="1984" y1="616" x2="1891.97" y2="655.355" gradientUnits="userSpaceOnUse">
<stop stop-color="#00A5E7"/>
<stop offset="1" stop-color="#00A5E7" stop-opacity="0"/>
</linearGradient>
<linearGradient id="paint2_linear" x1="1720" y1="722" x2="1298.21" y2="902.378" gradientUnits="userSpaceOnUse">
<stop stop-color="#00A5E7"/>
<stop offset="1" stop-color="#00A5E7" stop-opacity="0"/>
</linearGradient>
<linearGradient id="paint3_linear" x1="260.902" y1="230.203" x2="601.627" y2="385.943" gradientUnits="userSpaceOnUse">
<stop stop-color="#00A5E7"/>
<stop offset="1" stop-color="#00A5E7" stop-opacity="0"/>
</linearGradient>
<linearGradient id="paint4_linear" x1="591.001" y1="186" x2="529.65" y2="212.237" gradientUnits="userSpaceOnUse">
<stop stop-color="#00A5E7"/>
<stop offset="1" stop-color="#00A5E7" stop-opacity="0"/>
</linearGradient>
<linearGradient id="paint5_linear" x1="314.001" y1="684" x2="237.312" y2="716.796" gradientUnits="userSpaceOnUse">
<stop stop-color="#00A5E7"/>
<stop offset="1" stop-color="#00A5E7" stop-opacity="0"/>
</linearGradient>
<linearGradient id="paint6_linear" x1="774.397" y1="678.083" x2="866.676" y2="720.262" gradientUnits="userSpaceOnUse">
<stop stop-color="#00A5E7"/>
<stop offset="1" stop-color="#00A5E7" stop-opacity="0"/>
</linearGradient>
</defs>
</svg>
