<svg width="1920" height="931" viewBox="0 0 1920 931" fill="none" xmlns="http://www.w3.org/2000/svg">
<g filter="url(#filter0_d)">
<circle cx="1661" cy="716" r="100" fill="#007AE8"/>
<circle cx="1661" cy="716" r="100" fill="url(#paint0_linear)"/>
</g>
<g filter="url(#filter1_d)">
<path fill-rule="evenodd" clip-rule="evenodd" d="M1812 616C1845.14 616 1872 589.137 1872 556C1872 522.863 1845.14 496 1812 496C1778.86 496 1752 522.863 1752 556C1752 589.137 1778.86 616 1812 616ZM1812 588C1829.67 588 1844 573.673 1844 556C1844 538.327 1829.67 524 1812 524C1794.33 524 1780 538.327 1780 556C1780 573.673 1794.33 588 1812 588Z" fill="#007AE8"/>
<path fill-rule="evenodd" clip-rule="evenodd" d="M1812 616C1845.14 616 1872 589.137 1872 556C1872 522.863 1845.14 496 1812 496C1778.86 496 1752 522.863 1752 556C1752 589.137 1778.86 616 1812 616ZM1812 588C1829.67 588 1844 573.673 1844 556C1844 538.327 1829.67 524 1812 524C1794.33 524 1780 538.327 1780 556C1780 573.673 1794.33 588 1812 588Z" fill="url(#paint1_linear)"/>
</g>
<circle cx="1333" cy="447" r="275" fill="#007AE8"/>
<circle cx="1333" cy="447" r="275" fill="url(#paint2_linear)"/>
<circle cx="1333" cy="447" r="194.7" fill="white"/>
<circle cx="140.052" cy="252.053" r="240" transform="rotate(2.95483 140.052 252.053)" fill="#007AE8"/>
<circle cx="140.052" cy="252.053" r="240" transform="rotate(2.95483 140.052 252.053)" fill="url(#paint3_linear)"/>
<g filter="url(#filter2_d)">
<path fill-rule="evenodd" clip-rule="evenodd" d="M439 186C461.091 186 479 168.091 479 146C479 123.909 461.091 106 439 106C416.909 106 399 123.909 399 146C399 168.091 416.909 186 439 186ZM439 167.333C450.782 167.333 460.333 157.782 460.333 146C460.333 134.218 450.782 124.667 439 124.667C427.218 124.667 417.667 134.218 417.667 146C417.667 157.782 427.218 167.333 439 167.333Z" fill="#007AE8"/>
<path fill-rule="evenodd" clip-rule="evenodd" d="M439 186C461.091 186 479 168.091 479 146C479 123.909 461.091 106 439 106C416.909 106 399 123.909 399 146C399 168.091 416.909 186 439 186ZM439 167.333C450.782 167.333 460.333 157.782 460.333 146C460.333 134.218 450.782 124.667 439 124.667C427.218 124.667 417.667 134.218 417.667 146C417.667 157.782 427.218 167.333 439 167.333Z" fill="url(#paint4_linear)"/>
</g>
<g filter="url(#filter3_d)">
<path fill-rule="evenodd" clip-rule="evenodd" d="M152 684C179.614 684 202 661.614 202 634C202 606.386 179.614 584 152 584C124.386 584 102 606.386 102 634C102 661.614 124.386 684 152 684ZM152 660.667C166.728 660.667 178.667 648.728 178.667 634C178.667 619.272 166.728 607.333 152 607.333C137.272 607.333 125.333 619.272 125.333 634C125.333 648.728 137.272 660.667 152 660.667Z" fill="#007AE8"/>
<path fill-rule="evenodd" clip-rule="evenodd" d="M152 684C179.614 684 202 661.614 202 634C202 606.386 179.614 584 152 584C124.386 584 102 606.386 102 634C102 661.614 124.386 684 152 684ZM152 660.667C166.728 660.667 178.667 648.728 178.667 634C178.667 619.272 166.728 607.333 152 607.333C137.272 607.333 125.333 619.272 125.333 634C125.333 648.728 137.272 660.667 152 660.667Z" fill="url(#paint5_linear)"/>
</g>
<g filter="url(#filter4_d)">
<circle cx="659.999" cy="684" r="65" fill="#007AE8"/>
<circle cx="659.999" cy="684" r="65" fill="url(#paint6_linear)"/>
</g>
<defs>
<filter id="filter0_d" x="1551" y="616" width="280" height="315" filterUnits="userSpaceOnUse" color-interpolation-filters="sRGB">
<feFlood flood-opacity="0" result="BackgroundImageFix"/>
<feColorMatrix in="SourceAlpha" type="matrix" values="0 0 0 0 0 0 0 0 0 0 0 0 0 0 0 0 0 0 127 0"/>
<feOffset dx="30" dy="75"/>
<feGaussianBlur stdDeviation="20"/>
<feColorMatrix type="matrix" values="0 0 0 0 0 0 0 0 0 0 0 0 0 0 0 0 0 0 0.09 0"/>
<feBlend mode="normal" in2="BackgroundImageFix" result="effect1_dropShadow"/>
<feBlend mode="normal" in="SourceGraphic" in2="effect1_dropShadow" result="shape"/>
</filter>
<filter id="filter1_d" x="1742" y="496" width="200" height="235" filterUnits="userSpaceOnUse" color-interpolation-filters="sRGB">
<feFlood flood-opacity="0" result="BackgroundImageFix"/>
<feColorMatrix in="SourceAlpha" type="matrix" values="0 0 0 0 0 0 0 0 0 0 0 0 0 0 0 0 0 0 127 0"/>
<feOffset dx="30" dy="75"/>
<feGaussianBlur stdDeviation="20"/>
<feColorMatrix type="matrix" values="0 0 0 0 0 0 0 0 0 0 0 0 0 0 0 0 0 0 0.09 0"/>
<feBlend mode="normal" in2="BackgroundImageFix" result="effect1_dropShadow"/>
<feBlend mode="normal" in="SourceGraphic" in2="effect1_dropShadow" result="shape"/>
</filter>
<filter id="filter2_d" x="389" y="106" width="160" height="195" filterUnits="userSpaceOnUse" color-interpolation-filters="sRGB">
<feFlood flood-opacity="0" result="BackgroundImageFix"/>
<feColorMatrix in="SourceAlpha" type="matrix" values="0 0 0 0 0 0 0 0 0 0 0 0 0 0 0 0 0 0 127 0"/>
<feOffset dx="30" dy="75"/>
<feGaussianBlur stdDeviation="20"/>
<feColorMatrix type="matrix" values="0 0 0 0 0 0 0 0 0 0 0 0 0 0 0 0 0 0 0.09 0"/>
<feBlend mode="normal" in2="BackgroundImageFix" result="effect1_dropShadow"/>
<feBlend mode="normal" in="SourceGraphic" in2="effect1_dropShadow" result="shape"/>
</filter>
<filter id="filter3_d" x="92" y="584" width="180" height="215" filterUnits="userSpaceOnUse" color-interpolation-filters="sRGB">
<feFlood flood-opacity="0" result="BackgroundImageFix"/>
<feColorMatrix in="SourceAlpha" type="matrix" values="0 0 0 0 0 0 0 0 0 0 0 0 0 0 0 0 0 0 127 0"/>
<feOffset dx="30" dy="75"/>
<feGaussianBlur stdDeviation="20"/>
<feColorMatrix type="matrix" values="0 0 0 0 0 0 0 0 0 0 0 0 0 0 0 0 0 0 0.09 0"/>
<feBlend mode="normal" in2="BackgroundImageFix" result="effect1_dropShadow"/>
<feBlend mode="normal" in="SourceGraphic" in2="effect1_dropShadow" result="shape"/>
</filter>
<filter id="filter4_d" x="584.999" y="619" width="210" height="245" filterUnits="userSpaceOnUse" color-interpolation-filters="sRGB">
<feFlood flood-opacity="0" result="BackgroundImageFix"/>
<feColorMatrix in="SourceAlpha" type="matrix" values="0 0 0 0 0 0 0 0 0 0 0 0 0 0 0 0 0 0 127 0"/>
<feOffset dx="30" dy="75"/>
<feGaussianBlur stdDeviation="20"/>
<feColorMatrix type="matrix" values="0 0 0 0 0 0 0 0 0 0 0 0 0 0 0 0 0 0 0.09 0"/>
<feBlend mode="normal" in2="BackgroundImageFix" result="effect1_dropShadow"/>
<feBlend mode="normal" in="SourceGraphic" in2="effect1_dropShadow" result="shape"/>
</filter>
<linearGradient id="paint0_linear" x1="1664.69" y1="706.896" x2="1806.65" y2="771.788" gradientUnits="userSpaceOnUse">
<stop stop-color="#00A5E7"/>
<stop offset="1" stop-color="#00A5E7" stop-opacity="0"/>
</linearGradient>
<linearGradient id="paint1_linear" x1="1872" y1="616" x2="1779.97" y2="655.355" gradientUnits="userSpaceOnUse">
<stop stop-color="#00A5E7"/>
<stop offset="1" stop-color="#00A5E7" stop-opacity="0"/>
</linearGradient>
<linearGradient id="paint2_linear" x1="1608" y1="722" x2="1186.21" y2="902.378" gradientUnits="userSpaceOnUse">
<stop stop-color="#00A5E7"/>
<stop offset="1" stop-color="#00A5E7" stop-opacity="0"/>
</linearGradient>
<linearGradient id="paint3_linear" x1="148.901" y1="230.203" x2="489.626" y2="385.943" gradientUnits="userSpaceOnUse">
<stop stop-color="#00A5E7"/>
<stop offset="1" stop-color="#00A5E7" stop-opacity="0"/>
</linearGradient>
<linearGradient id="paint4_linear" x1="479" y1="186" x2="417.649" y2="212.237" gradientUnits="userSpaceOnUse">
<stop stop-color="#00A5E7"/>
<stop offset="1" stop-color="#00A5E7" stop-opacity="0"/>
</linearGradient>
<linearGradient id="paint5_linear" x1="202" y1="684" x2="125.311" y2="716.796" gradientUnits="userSpaceOnUse">
<stop stop-color="#00A5E7"/>
<stop offset="1" stop-color="#00A5E7" stop-opacity="0"/>
</linearGradient>
<linearGradient id="paint6_linear" x1="662.396" y1="678.083" x2="754.675" y2="720.262" gradientUnits="userSpaceOnUse">
<stop stop-color="#00A5E7"/>
<stop offset="1" stop-color="#00A5E7" stop-opacity="0"/>
</linearGradient>
</defs>
</svg>
